<?xml version="1.0" standalone="no"?>
<!DOCTYPE svg PUBLIC "-//W3C//DTD SVG 20010904//EN"
 "http://www.w3.org/TR/2001/REC-SVG-20010904/DTD/svg10.dtd">
<svg version="1.0" xmlns="http://www.w3.org/2000/svg"
 width="300.000000pt" height="300.000000pt" viewBox="0 0 300.000000 300.000000"
 preserveAspectRatio="xMidYMid meet">
<metadata>
Created by potrace 1.10, written by Peter Selinger 2001-2011
</metadata>
<g transform="translate(0.000000,300.000000) scale(0.100000,-0.100000)"
fill="#000000" stroke="none">
<path d="M1730 2743 c-153 -154 -220 -328 -207 -542 15 -247 154 -457 379
-571 110 -55 204 -74 341 -67 189 8 313 64 452 202 93 92 166 214 145 241 -17
20 -23 18 -82 -19 -190 -119 -410 -130 -616 -31 -83 40 -192 136 -245 217
-107 162 -132 370 -67 554 15 42 17 60 9 70 -20 24 -40 14 -109 -54z m18 -90
c-7 -16 -12 -77 -11 -143 0 -96 5 -129 26 -195 95 -293 357 -485 660 -485 134
0 264 37 325 93 12 11 22 16 22 11 0 -5 -8 -16 -17 -25 -10 -8 -38 -39 -63
-68 -179 -210 -484 -281 -736 -170 -210 93 -355 301 -371 530 -10 152 23 277
109 405 50 74 77 98 56 47z"/>
<path d="M2265 2551 c-40 -59 -41 -60 -109 -73 -96 -18 -101 -31 -42 -103 37
-45 46 -64 42 -84 -3 -14 -8 -47 -12 -73 -8 -62 8 -69 94 -39 l64 22 64 -30
c36 -17 71 -28 79 -25 11 5 15 24 15 83 l0 77 45 44 c66 65 62 84 -25 110 -69
21 -70 21 -106 85 -22 40 -42 65 -52 65 -10 0 -35 -27 -57 -59z m90 -95 c15
-23 32 -33 63 -40 23 -5 42 -13 42 -18 0 -5 -13 -21 -30 -35 -27 -22 -30 -30
-30 -84 0 -32 -2 -59 -5 -59 -2 0 -19 9 -37 20 -40 24 -64 25 -113 4 l-37 -15
6 54 c7 52 5 57 -23 90 -17 19 -31 37 -31 40 0 3 20 9 45 13 49 7 64 18 92 65
16 27 19 28 28 13 6 -9 19 -30 30 -48z"/>
<path d="M687 2516 c-95 -34 -133 -127 -88 -214 11 -21 379 -395 838 -854 725
-724 822 -817 856 -823 121 -22 220 78 187 190 -10 34 -132 161 -828 858 -449
450 -828 824 -842 831 -42 22 -83 26 -123 12z m910 -878 c539 -539 824 -832
828 -849 8 -31 -16 -83 -44 -99 -11 -5 -35 -10 -53 -10 -30 0 -97 64 -860 828
-914 913 -861 852 -802 921 21 26 33 31 67 31 l42 0 822 -822z"/>
<path d="M768 1929 c-27 -15 -104 -120 -147 -201 -66 -121 -86 -209 -85 -373
1 -130 3 -147 32 -233 59 -174 169 -320 313 -417 262 -176 609 -181 872 -12
66 43 147 114 147 131 0 11 -1074 1091 -1100 1106 -9 5 -23 4 -32 -1z m1052
-1109 c0 -10 -106 -83 -160 -110 -113 -57 -193 -75 -335 -75 -109 0 -142 4
-205 23 -227 72 -396 228 -479 442 -90 233 -54 498 96 701 l45 62 519 -519
c285 -285 519 -521 519 -524z"/>
<path d="M161 1686 c-24 -29 0 -43 125 -76 129 -34 150 -33 142 6 -2 14 -30
26 -118 51 -132 37 -134 38 -149 19z"/>
<path d="M283 1116 c-119 -33 -137 -43 -127 -69 8 -22 28 -21 116 2 40 11 92
25 116 31 34 9 42 15 42 34 0 18 -23 42 -33 35 -1 -1 -52 -15 -114 -33z"/>
<path d="M547 632 c-90 -90 -105 -122 -63 -130 26 -5 198 165 194 193 -6 44
-41 27 -131 -63z"/>
<path d="M1052 453 c-5 -10 -22 -69 -38 -130 -30 -118 -27 -142 13 -129 14 5
26 35 52 131 18 68 30 129 26 135 -10 16 -43 12 -53 -7z"/>
<path d="M1544 456 c-3 -7 6 -53 20 -102 13 -49 27 -103 31 -121 7 -35 39 -53
58 -34 8 8 4 41 -17 124 -16 61 -33 120 -38 130 -10 20 -46 23 -54 3z"/>
</g>
</svg>
